<?xml version="1.0" encoding="UTF-8"?>
<svg id="Ebene_1" xmlns="http://www.w3.org/2000/svg" version="1.1" viewBox="0 0 735.05 250.21">
  <!-- Generator: Adobe Illustrator 30.5.1, SVG Export Plug-In . SVG Version: 2.1.4 Build 3)  -->
  <defs>
    <style>
      .st0 {
        stroke: #000;
      }
    </style>
  </defs>
  <g id="Ebene_11" data-name="Ebene_1" data-guides="{&quot;vertical&quot;:[],&quot;horizontal&quot;:[]}">
    <path id="tSvga5924c719d" class="st0" d="M24.5,24.5h12.9v-13.05h11.1V.5h156v11h11v227h-13v11H12.5v-11H.5V47.5h12v-12h12v-11ZM201.5,236.5v-92h-23v-24.93h-.1v-25.05h23v13h-9.1v10.98h9.19V13.5h-9v59H48.5v-13h11.95V26.5h.05v-13h-9.19v11h-12.9v13.05h-12v11h-11.9v45.95h13.95v50h-13.95v92h187-.01ZM98.5,59.5h10V26.5h-10v33ZM122.5,59.5h9V26.5h-9v33ZM145.5,59.5h9V26.5h-9v33ZM168.5,59.5h10V26.5h-10v33ZM74.45,59.5h10.05V26.5h-10.05v33ZM25.5,212.5h166v13H25.5v-13ZM82.5,118.5h13.9v13.05h-13.9v-13.05ZM129.5,118.5h13.9v13.05h-13.9v-13.05ZM129.5,142.5h13.9v13.05h-11.9v10.95h-37v-10.95h-12v-13.05h13.9v11h33.1v-11Z"/>
  </g>
  <g id="Ebene_2">
    <g>
      <path d="M337.14,61.87h21.51v134.4h-21.51v27.12h-21.28v26.82h-85.34V7.93h85.34v27.12h21.28v26.82ZM315.86,61.87h-42.79v134.4h42.79V61.87Z"/>
      <path d="M578.88,35.05h21.28v215.16h-42.78V61.87h-21.28v26.82h-21.28v161.52h-42.78V88.69h-21.28v-26.82h-21.28v188.34h-42.79V35.05h21.28V7.93h42.79v27.12h21.28v26.82h42.78v-26.82h21.28V7.93h42.78v27.12Z"/>
      <path d="M670.99,196.27h64.06v53.94h-85.57v-26.82h-21.28V7.93h42.79v188.34h0Z"/>
    </g>
  </g>
</svg>