<?xml version="1.0" encoding="UTF-8"?>
<svg xmlns="http://www.w3.org/2000/svg" version="1.1" viewBox="0 0 599.08 599.08">
  <!-- Generator: Adobe Illustrator 30.5.1, SVG Export Plug-In . SVG Version: 2.1.4 Build 3)  -->
  <defs>
    <style>
      .st0 {
        fill: #fff;
        stroke: #fff;
      }

      .st0, .st1 {
        stroke-miterlimit: 10;
        stroke-width: 4px;
      }

      .st2, .st1 {
        display: none;
      }

      .st1 {
        fill: none;
        stroke: #000;
      }
    </style>
  </defs>
  <g id="Ebene_2">
    <circle class="st0" cx="299.54" cy="299.54" r="297.54"/>
  </g>
  <g id="Vektorebene">
    <path d="M253.68,537.28h0,0,0Z"/>
    <path d="M253.25,537.3s.03,0,.05,0c0,0,.02,0,.03,0-.03,0-.06,0-.09,0,0,0,.01,0,.02,0Z"/>
    <path d="M253.16,537.3c-.1,0-.2,0-.3.01.1,0,.2-.01.3-.01Z"/>
    <path d="M243.1,531.5s.05.01.07.02c-.02,0-.05-.01-.07-.02Z"/>
    <path d="M243.28,531.55c.15.03.31.07.46.1.07.02.13.03.2.05-.22-.05-.44-.1-.66-.15Z"/>
    <path d="M243.94,531.7s.08.02.12.03c-.04,0-.08-.02-.12-.03Z"/>
    <path d="M235.47,188.81s0,.07,0,.11c0-.04,0-.07,0-.11Z"/>
    <path d="M231.57,156.61c.17.06.33.12.49.19-.16-.07-.33-.13-.49-.19Z"/>
    <path d="M239.47,536.06s-.07,0-.11,0c.04,0,.07,0,.11,0Z"/>
    <path d="M205.57,436.99l-.05-41.56h-32.76v41.56h32.81ZM209.87,333.04v-.11s-.1.07-.15.11h.15ZM234.81,395.06v-30.86h-9.25s-19.74,0-19.74,0v30.86h28.99ZM444.61,273.86c0-69.74-24.63-103.2-66.62-103.2-10.04,0-21.09,1.92-33.02,5.71-14.13,4.49-24.64,9.34-31.97,13.19v272.47c6.87-.92,16.93-4.48,26.05-7.71,63.69-22.07,105.56-80.12,105.56-180.46ZM461.85,121.4c32.04,19.5,50.79,60.27,50.79,128.68,0,81.21-24.88,137.22-50.79,172.62-31,42.38-78.86,75.14-139.69,97.17-9.3,3.37-18.1,6.35-26.35,8.98-2.96,1.03-5.94,2.01-8.93,2.95-8.34,2.61-16.8,4.86-25.33,6.74-9.02,1.98-18.14,3.51-27.34,4.32-3.38.3-6.78.48-10.17.48-.57,0-1.13,0-1.7-.02-4.23-.08-8.67-.32-12.81-1.44-.84-.04-1.71-.23-2.61-.62-5.4-1.32-10.18-3.96-14.82-6.88-14.83-7.04-27.91-18.39-33.7-34.05-.53-1.4-1.14-2.95-1.64-4.55v-13.05c.07-14.07.15-28.13.23-42.19h-31.26v-.51h-.04v-3.05h.04v-42.36h46.76v-31.19h.02v-12.41h-24.31l-.03-34.8h45.08c.17-.15.34-.3.52-.43v-59.51h-35.69c.02-3.03.04-6.07.05-9.1.12-21.49.25-42.97.38-64.44.07-12.61.19-25.21.23-37.81,0-.08,0-.17,0-.25,0-1.1.01-2.2.02-3.3,0-.15,0-.3.02-.45-.01-.14-.02-.28-.02-.42,0-1.5.5-2.93,1.35-4.11.08-1.08.42-2.16.99-3.12.97-1.61,2.44-2.67,4.17-3.27,19.45-6.71,39-13.46,58.66-20.25,21.77-7.51,43.66-15.07,65.69-22.68,21.97-7.58,44.07-15.21,66.3-22.89,8.14-2.81,16.3-5.63,24.48-8.46.33.23.65.47.98.7,4.3,3.05,8.59,6.11,12.89,9.16-15.49,5.3-30.9,10.61-46.26,15.88-22.3,7.66-44.48,15.27-66.53,22.84-21.99,7.55-43.85,15.05-65.58,22.51-12.57,4.32-25.09,8.61-37.57,12.89,3.44,2.81,7.55,4.77,11.6,6.64,5.74,2.51,11.45,5.14,17.76,6.18,3.96,1.05,7.99,2.09,12.14,2.27,1.55.51,3.25.47,4.89.6.53.07,1.05.14,1.58.22.42.11.84.18,1.29.22.02,0,.04,0,.05,0,.02,0,.04,0,.06,0,.12,0,.23.01.35.02.6,0,1.19.01,1.79,0,.55.16,1.14.25,1.74.29,1.33.07,2.66.06,3.98.15.14.01.27.02.41.03.08.05.17.1.26.14,6.91-.95,13.72-2.85,20.34-5.09,23.13-10.98,50.92-21.81,80.17-30.87,57.9-17.95,96.75-16.57,125.08.87Z"/>
    <path d="M113.94,344.85v41.26h-42.27v-41.26h42.27Z"/>
    <path d="M137.39,261.11v38.43h-39.37v-38.43h39.37Z"/>
    <path d="M67.46,281.48v36.13H30.46v-36.13h37.01Z"/>
    <path d="M92.68,213.84v22.71h-23.26v-22.71h23.26Z"/>
    <line class="st1" x1="-115.22" y1="359.99" x2="-114.92" y2="-2.66"/>
    <g class="st2">
      <path d="M-78.43,77.53V5.24h41.31v5.16h5.16v5.16h5.16v51.64h-5.16v5.16h-5.16v5.16h-41.31ZM-42.28,62.03h5.16V20.73h-5.16v-5.16h-25.71v51.64h25.71v-5.16Z"/>
      <path d="M1.12,67.2V15.56h-10.33V5.24h30.87v10.33h-10.22v51.64h10.22v10.33H-9.21v-10.33H1.12Z"/>
      <path d="M47.26,72.36h-5.16v-5.16h-5.16V15.56h5.16v-5.16h5.16v-5.16h30.98v5.16h5.16v5.16h5.16v10.22h-10.33v-5.05h-5.16v-5.16h-20.65v5.16h-5.16v41.31h5.16v5.16h25.82v-15.38h-10.44v-10.22h20.76v35.93h-41.31v-5.16Z"/>
      <path d="M116.59,67.2V15.56h-10.33V5.24h30.87v10.33h-10.22v51.64h10.22v10.33h-30.87v-10.33h10.33Z"/>
      <path d="M166.47,77.53V15.34h-20.98V5.24h51.86v10.11h-20.54v62.18h-10.33Z"/>
      <path d="M202.62,77.53V25.89h5.05v-5.16h5.16v-5.16h5.16v-5.16h5.16v-5.16h10.33v5.16h5.27v5.16h5.16v5.16h5.05v5.16h5.27v51.64h-10.44v-22.96h-30.98v22.96h-10.22ZM212.84,44.46h31.09v-13.4h-5.16v-5.16h-5.27v-5.16h-10.33v5.16h-5.16v5.16h-5.16v13.4Z"/>
      <path d="M318.31,67.31v10.22h-46.58V5.24h10.33v62.07h36.25Z"/>
      <path d="M-78.43,218.82v-72.29h10.33v5.16h5.16v5.16h5.16v5.16h10.33v-5.16h5.16v-5.16h5.16v-5.16h10.33v72.29h-10.33v-51.64h-5.16v5.16h-5.16v15.49h-10.33v-15.49h-5.05v-5.16h-5.27v51.64h-10.33Z"/>
      <path d="M42.43,208.6v10.22H-9.21v-72.29h51.64v10.11H1.23v20.54h30.87v10.33H1.23v21.09h41.2Z"/>
      <path d="M58.14,218.82v-72.29h41.31v5.16h5.16v5.16h5.16v51.64h-5.16v5.16h-5.16v5.16h-41.31ZM94.29,203.33h5.16v-41.31h-5.16v-5.16h-25.71v51.64h25.71v-5.16Z"/>
      <path d="M137.68,208.49v-51.64h-10.33v-10.33h30.87v10.33h-10.22v51.64h10.22v10.33h-30.87v-10.33h10.33Z"/>
      <path d="M173.5,218.82v-51.64h5.05v-5.16h5.16v-5.16h5.16v-5.16h5.16v-5.16h10.33v5.16h5.27v5.16h5.16v5.16h5.05v5.16h5.27v51.64h-10.44v-22.96h-30.98v22.96h-10.22ZM183.72,185.75h31.09v-13.4h-5.16v-5.16h-5.27v-5.16h-10.33v5.16h-5.16v5.16h-5.16v13.4Z"/>
      <path d="M-31.84,349.89v10.22h-46.58v-72.29h10.33v62.07H-31.84Z"/>
      <path d="M-7.34,349.78v-51.64h-10.33v-10.33H13.2v10.33H2.99v51.64h10.22v10.33h-30.87v-10.33H-7.34Z"/>
      <path d="M28.48,360.11v-72.29h41.31v5.16h5.16v5.16h5.16v20.65h-5.16v10.22h5.16v20.76h-5.16v5.16h-5.16v5.16H28.48ZM38.8,318.8h25.82v-5.27h5.16v-10.22h-5.16v-5.16h-25.82v20.65ZM38.8,349.78h25.82v-5.16h5.16v-10.44h-5.16v-5.27h-25.82v20.87Z"/>
      <path d="M97.69,360.11v-72.29h41.31v5.16h5.16v5.16h5.16v20.65h-5.16v5.16h-5.16v5.05h-10.22v5.27h5.16v5.16h5.16v5.16h5.16v5.16h5.16v10.33h-10.33v-5.16h-5.16v-5.16h-5.16v-5.16h-5.16v-5.16h-5.16v-5.16h-5.16v-5.27h-5.27v31.09h-10.33ZM108.02,318.69h25.82v-5.05h5.16v-10.33h-5.16v-5.16h-25.82v20.54Z"/>
      <path d="M165.92,360.11v-51.64h5.05v-5.16h5.16v-5.16h5.16v-5.16h5.16v-5.16h10.33v5.16h5.27v5.16h5.16v5.16h5.05v5.16h5.27v51.64h-10.44v-22.96h-30.98v22.96h-10.22ZM176.14,327.04h31.09v-13.4h-5.16v-5.16h-5.27v-5.16h-10.33v5.16h-5.16v5.16h-5.16v13.4Z"/>
      <path d="M235.03,360.11v-72.29h41.31v5.16h5.16v5.16h5.16v20.65h-5.16v5.16h-5.16v5.05h-10.22v5.27h5.16v5.16h5.16v5.16h5.16v5.16h5.16v10.33h-10.33v-5.16h-5.16v-5.16h-5.16v-5.16h-5.16v-5.16h-5.16v-5.16h-5.16v-5.27h-5.27v31.09h-10.33ZM245.36,318.69h25.82v-5.05h5.16v-10.33h-5.16v-5.16h-25.82v20.54Z"/>
      <path d="M319.3,360.11v-28.12h-5.05v-5.16h-5.16v-5.16h-5.16v-5.16h-5.05v-28.67h10.22v23.51h5.16v5.16h5.16v5.16h10.33v-5.16h5.27v-5.16h5.16v-23.51h10.22v28.67h-5.16v5.16h-5.05v5.16h-5.16v5.16h-5.27v28.12h-10.44Z"/>
    </g>
  </g>
</svg>