<?xml version="1.0" encoding="UTF-8"?>
<svg xmlns="http://www.w3.org/2000/svg" version="1.1" viewBox="0 0 3210.45 250.21">
  <!-- Generator: Adobe Illustrator 30.5.1, SVG Export Plug-In . SVG Version: 2.1.4 Build 3)  -->
  <defs>
    <style>
      .st0, .st1 {
        fill: #fff;
      }

      .st1 {
        stroke: #fff;
      }
    </style>
  </defs>
  <g id="Ebene_1" data-guides="{&quot;vertical&quot;:[],&quot;horizontal&quot;:[]}">
    <path id="tSvga5924c719d" class="st1" d="M24.5,24.5h12.9v-13.05h11.1V.5h156v11h11v227h-13v11H12.5v-11H.5V47.5h12v-12h12v-11ZM201.5,236.5v-92h-23v-24.93h-.1v-25.05h23v13h-9.1v10.98h9.19V13.5h-9v59H48.5v-13h11.95V26.5h.05v-13h-9.19v11h-12.9v13.05h-12v11h-11.9v45.95h13.95v50h-13.95v92h187ZM98.5,59.5h10V26.5h-10v33ZM122.5,59.5h9V26.5h-9v33ZM145.5,59.5h9V26.5h-9v33ZM168.5,59.5h10V26.5h-10v33ZM74.45,59.5h10.05V26.5h-10.05v33ZM25.5,212.5h166v13H25.5v-13ZM82.5,118.5h13.9v13.05h-13.9v-13.05ZM129.5,118.5h13.9v13.05h-13.9v-13.05ZM129.5,142.5h13.9v13.05h-11.9v10.95h-37v-10.95h-12v-13.05h13.9v11h33.1v-11Z"/>
  </g>
  <g id="Ebene_2">
    <g>
      <path class="st0" d="M337.14,61.87h21.51v134.4h-21.51v27.12h-21.28v26.82h-85.34V7.93h85.34v27.12h21.28v26.82ZM315.86,61.87h-42.79v134.4h42.79V61.87Z"/>
      <path class="st0" d="M377.35,196.27h21.28V61.87h-21.28V7.93h85.34v53.94h-21.28v134.4h21.28v53.94h-85.34v-53.94Z"/>
      <path class="st0" d="M618.86,250.21h-21.28v-26.82h-21.28v26.82h-64.06v-26.82h-21.51V35.05h21.51V7.93h85.33v53.94h-64.06v134.4h42.78v-49.81h-21.51v-34.78h64.06v138.53Z"/>
      <path class="st0" d="M646.91,196.27h21.28V61.87h-21.28V7.93h85.34v53.94h-21.28v134.4h21.28v53.94h-85.34v-53.94Z"/>
      <path class="st0" d="M802.85,61.87h-42.55V7.93h128.12v53.94h-42.78v188.34h-42.79V61.87Z"/>
      <path class="st0" d="M1032.91,61.87h21.28v188.34h-42.55v-63.37h-64.06v63.37h-42.79V61.87h21.51v-26.82h21.28V7.93h64.06v27.12h21.28v26.82ZM1011.63,88.69h-21.51v-26.82h-21.28v26.82h-21.28v63.37h64.06v-63.37Z"/>
      <path class="st0" d="M1125.02,196.27h64.06v53.94h-85.57v-26.82h-21.28V7.93h42.79v188.34Z"/>
      <path class="st0" d="M1479.45,35.05h21.28v215.16h-42.78V61.87h-21.28v26.82h-21.28v161.52h-42.78V88.69h-21.28v-26.82h-21.28v188.34h-42.79V35.05h21.28V7.93h42.79v27.12h21.28v26.82h42.78v-26.82h21.28V7.93h42.78v27.12Z"/>
      <path class="st0" d="M1550.29,7.93h85.33v53.94h-64.06v49.81h64.06v34.78h-64.06v49.81h64.06v53.94h-85.33v-26.82h-21.51V35.05h21.51V7.93Z"/>
      <path class="st0" d="M1770.29,61.87h21.51v134.4h-21.51v27.12h-21.28v26.82h-85.34V7.93h85.34v27.12h21.28v26.82ZM1749.01,61.87h-42.79v134.4h42.79V61.87Z"/>
      <path class="st0" d="M1810.5,196.27h21.28V61.87h-21.28V7.93h85.34v53.94h-21.28v134.4h21.28v53.94h-85.34v-53.94Z"/>
      <path class="st0" d="M2052,61.87h21.28v188.34h-42.55v-63.37h-64.06v63.37h-42.79V61.87h21.51v-26.82h21.28V7.93h64.06v27.12h21.28v26.82ZM2030.73,88.69h-21.51v-26.82h-21.28v26.82h-21.28v63.37h64.06v-63.37Z"/>
      <path class="st0" d="M2214.25,196.27h64.06v53.94h-85.57v-26.82h-21.28V7.93h42.79v188.34Z"/>
      <path class="st0" d="M2306.37,196.27h21.28V61.87h-21.28V7.93h85.34v53.94h-21.28v134.4h21.28v53.94h-85.34v-53.94Z"/>
      <path class="st0" d="M2526.6,35.05h21.28v80.76h-21.28v26.82h21.28v80.76h-21.28v26.82h-106.84V7.93h106.84v27.12ZM2505.32,61.87h-42.78v49.81h42.78v-49.81ZM2505.32,146.46h-42.78v49.81h42.78v-49.81Z"/>
      <path class="st0" d="M2682.77,35.05h21.28v80.76h-21.28v53.64h21.28v80.76h-42.55v-80.76h-42.78v80.76h-42.79V7.93h106.84v27.12ZM2661.5,61.87h-42.78v53.94h42.78v-53.94Z"/>
      <path class="st0" d="M2860.22,61.87h21.28v188.34h-42.55v-63.37h-64.06v63.37h-42.79V61.87h21.51v-26.82h21.28V7.93h64.06v27.12h21.28v26.82ZM2838.95,88.69h-21.51v-26.82h-21.28v26.82h-21.28v63.37h64.06v-63.37Z"/>
      <path class="st0" d="M3016.39,35.05h21.28v80.76h-21.28v53.64h21.28v80.76h-42.55v-80.76h-42.78v80.76h-42.79V7.93h106.84v27.12ZM2995.12,61.87h-42.78v53.94h42.78v-53.94Z"/>
      <path class="st0" d="M3167.66,7.93h42.78v80.76h-21.51v27.12h-21.28v26.82h-10.75v107.58h-42.55v-107.58h-10.75v-26.82h-21.28v-27.12h-21.28V7.93h42.55v80.76h21.28v27.12h21.51v-27.12h21.28V7.93Z"/>
    </g>
  </g>
</svg>