<?xml version="1.0" encoding="UTF-8"?>
<svg id="Vektorebene" xmlns="http://www.w3.org/2000/svg" version="1.1" viewBox="0 0 943.61 391.03">
  <!-- Generator: Adobe Illustrator 30.5.1, SVG Export Plug-In . SVG Version: 2.1.4 Build 3)  -->
  <defs>
    <style>
      .st0, .st1 {
        fill: #fff;
        stroke: #fff;
        stroke-miterlimit: 10;
      }

      .st1 {
        stroke-width: 4px;
      }
    </style>
  </defs>
  <path class="st0" d="M178.91,385.7h0Z"/>
  <path class="st0" d="M178.58,385.71h.03s.02,0,.03,0h-.08s0,0,.02,0Z"/>
  <path class="st0" d="M178.5,385.71c-.08,0-.15,0-.24,0,.09,0,.16,0,.24,0Z"/>
  <path class="st0" d="M170.46,381.07s.04,0,.06.02c-.03,0-.04,0-.06-.02Z"/>
  <path class="st0" d="M170.6,381.11c.12.03.25.05.37.09.05,0,.1.03.16.03-.17-.04-.35-.08-.53-.12Z"/>
  <path class="st0" d="M171.13,381.23s.07.02.1.03c-.03,0-.07-.02-.1-.03Z"/>
  <path class="st0" d="M164.59,106.93v.09s0-.06,0-.09Z"/>
  <path class="st0" d="M161.5,81.17c.14.04.26.1.39.15-.14-.05-.26-.1-.39-.15Z"/>
  <path class="st0" d="M167.55,384.72h-.09s.06,0,.09,0Z"/>
  <path class="st0" d="M140.5,305.44v-33.24s-26.22-.02-26.22-.02l-.03,33.24,26.24.02ZM144.01,222.29v-.09s-.08.06-.12.09h.12ZM163.92,271.92v-6.36s.02-18.33.02-18.33h-6.32s-1.07,0-1.07,0h-15.79s-.02,24.67-.02,24.67h15.86s7.33.02,7.33.02ZM331.84,175.11c.05-55.79-19.64-82.57-53.22-82.6-8.04,0-16.87,1.52-26.42,4.55-11.31,3.58-19.71,7.46-25.58,10.53l-.19,217.96c5.5-.73,13.55-3.58,20.85-6.15,50.96-17.61,84.49-64.02,84.56-144.28ZM345.73,53.15c25.62,15.62,40.59,48.25,40.54,102.98-.06,64.96-20,109.76-40.75,138.06-24.82,33.88-63.14,60.06-111.82,77.64-7.44,2.69-14.49,5.07-21.09,7.17-2.37.82-4.75,1.61-7.14,2.35-6.68,2.08-13.45,3.88-20.27,5.37-7.21,1.58-14.51,2.79-21.87,3.43-2.7.24-5.42.38-8.14.38-.45,0-.9,0-1.36-.02-3.38-.06-6.94-.26-10.24-1.16-.67-.03-1.37-.19-2.09-.5-4.32-1.06-8.14-3.17-11.85-5.52-11.86-5.64-22.31-14.73-26.94-27.26-.43-1.13-.91-2.36-1.31-3.64v-10.44c.08-11.25.16-22.5.23-33.75l-25.01-.02v-.41s-.03,0-.03,0v-2.43s.04,0,.04,0l.03-33.88,37.41.03.02-24.95h.02s0-9.44,0-9.44v-.49s-.11,0-.11,0l-19.33-.02v-27.84s7.65,0,7.65,0l23,.02h5.42c.14-.11.27-.23.41-.34l.04-47.61-28.55-.02c.02-2.43.04-4.86.05-7.28.12-17.19.23-34.38.35-51.55.07-10.08.17-20.17.21-30.25v-.2c0-.88.01-1.76.02-2.64,0-.12,0-.24.02-.37,0-.11-.02-.23-.02-.34,0-1.2.4-2.34,1.09-3.29.07-.87.33-1.73.79-2.5.78-1.29,1.95-2.13,3.34-2.61,15.56-5.36,31.21-10.75,46.94-16.16,17.42-5.99,34.94-12.02,52.56-18.09,17.58-6.05,35.26-12.14,53.05-18.26,6.51-2.24,13.05-4.5,19.59-6.75.26.19.52.38.78.56,3.43,2.44,6.87,4.89,10.31,7.34-12.4,4.23-24.73,8.47-37.01,12.67-17.85,6.11-35.6,12.18-53.24,18.22-17.6,6.03-35.09,12.01-52.48,17.97-10.06,3.44-20.08,6.87-30.06,10.29,2.75,2.24,6.03,3.82,9.28,5.32,4.58,2.02,9.16,4.12,14.2,4.96,3.16.85,6.39,1.68,9.71,1.82,1.24.41,2.6.38,3.91.49.43.06.84.11,1.26.18.33.09.67.15,1.03.18h.04s.03,0,.04,0c.09,0,.19,0,.28.02.48,0,.95,0,1.43,0,.44.13.91.21,1.39.23,1.07.06,2.12.05,3.19.12.11,0,.22.02.33.03.07.03.14.08.2.11,5.53-.75,10.98-2.27,16.28-4.06,18.51-8.77,40.75-17.4,64.15-24.64,46.34-14.31,77.42-13.17,100.07.79Z"/>
  <path class="st0" d="M67.26,231.66l-.03,33.01-33.81-.03.03-33.01,33.81.03Z"/>
  <path class="st0" d="M86.08,164.69l-.03,30.74-31.5-.03.03-30.74,31.5.03Z"/>
  <path class="st0" d="M30.13,180.94l-.02,28.9-29.6-.03.02-28.9,29.6.03Z"/>
  <path class="st0" d="M50.34,126.85l-.02,18.16-18.61-.02.02-18.16,18.61.02Z"/>
  <line class="st1" x1="476.72" y1="380.38" x2="477.03" y2="17.73"/>
  <g>
    <path class="st0" d="M514.28,90.39V18.1h41.31v5.16h5.16v5.16h5.16v51.64h-5.16v5.16h-5.16v5.16h-41.31ZM550.43,74.9h5.16v-41.31h-5.16v-5.16h-25.71v51.64h25.71v-5.17Z"/>
    <path class="st0" d="M593.83,80.06V28.42h-10.33v-10.33h30.87v10.33h-10.22v51.64h10.22v10.33h-30.87v-10.33h10.33Z"/>
    <path class="st0" d="M639.97,85.23h-5.16v-5.16h-5.16V28.43h5.16v-5.16h5.16v-5.16h30.98v5.16h5.16v5.16h5.16v10.22h-10.33v-5.05h-5.16v-5.16h-20.65v5.16h-5.16v41.31h5.16v5.16h25.82v-15.39h-10.44v-10.22h20.76v35.93h-41.31v-5.16h.01Z"/>
    <path class="st0" d="M709.3,80.06V28.42h-10.33v-10.33h30.87v10.33h-10.22v51.64h10.22v10.33h-30.87v-10.33h10.33Z"/>
    <path class="st0" d="M759.18,90.39V28.21h-20.98v-10.11h51.86v10.11h-20.54v62.18h-10.34Z"/>
    <path class="st0" d="M795.33,90.39v-51.64h5.05v-5.16h5.16v-5.16h5.16v-5.16h5.16v-5.16h10.33v5.16h5.27v5.16h5.16v5.16h5.05v5.16h5.27v51.64h-10.44v-22.96h-30.98v22.96h-10.19ZM805.54,57.32h31.09v-13.4h-5.16v-5.16h-5.27v-5.16h-10.33v5.16h-5.16v5.16h-5.16v13.4h0Z"/>
    <path class="st0" d="M911.02,80.17v10.22h-46.58V18.1h10.33v62.07h36.25Z"/>
    <path class="st0" d="M514.28,231.68v-72.29h10.33v5.16h5.16v5.16h5.16v5.16h10.33v-5.16h5.16v-5.16h5.16v-5.16h10.33v72.29h-10.33v-51.64h-5.16v5.16h-5.16v15.49h-10.33v-15.49h-5.05v-5.16h-5.27v51.64h-10.33Z"/>
    <path class="st0" d="M635.14,221.47v10.22h-51.64v-72.29h51.64v10.11h-41.2v20.54h30.87v10.33h-30.87v21.09h41.2Z"/>
    <path class="st0" d="M650.85,231.68v-72.29h41.31v5.16h5.16v5.16h5.16v51.64h-5.16v5.16h-5.16v5.16h-41.31ZM686.99,216.19h5.16v-41.31h-5.16v-5.16h-25.71v51.64h25.71v-5.17Z"/>
    <path class="st0" d="M730.39,221.36v-51.64h-10.33v-10.33h30.87v10.33h-10.22v51.64h10.22v10.33h-30.87v-10.33h10.33Z"/>
    <path class="st0" d="M766.21,231.68v-51.64h5.05v-5.16h5.16v-5.16h5.16v-5.16h5.16v-5.16h10.34v5.16h5.27v5.16h5.16v5.16h5.05v5.16h5.27v51.64h-10.44v-22.96h-30.98v22.96h-10.2ZM776.43,198.62h31.09v-13.4h-5.16v-5.16h-5.28v-5.16h-10.33v5.16h-5.16v5.16h-5.16v13.4Z"/>
    <path class="st0" d="M560.87,362.76v10.22h-46.59v-72.29h10.33v62.07h36.26Z"/>
    <path class="st0" d="M585.37,362.65v-51.64h-10.33v-10.33h30.87v10.33h-10.22v51.64h10.22v10.33h-30.87v-10.33h10.33Z"/>
    <path class="st0" d="M621.18,372.98v-72.29h41.31v5.16h5.16v5.16h5.16v20.65h-5.16v10.22h5.16v20.76h-5.16v5.16h-5.16v5.16h-41.31v.02ZM631.51,331.67h25.82v-5.27h5.16v-10.22h-5.16v-5.16h-25.82v20.65ZM631.51,362.65h25.82v-5.16h5.16v-10.44h-5.16v-5.27h-25.82v20.87Z"/>
    <path class="st0" d="M690.4,372.98v-72.29h41.31v5.16h5.16v5.16h5.16v20.65h-5.16v5.16h-5.16v5.05h-10.22v5.27h5.16v5.16h5.16v5.16h5.16v5.16h5.16v10.33h-10.33v-5.16h-5.16v-5.16h-5.16v-5.16h-5.16v-5.16h-5.16v-5.16h-5.16v-5.27h-5.27v31.09h-10.33ZM700.73,331.56h25.82v-5.05h5.16v-10.33h-5.16v-5.16h-25.82v20.54Z"/>
    <path class="st0" d="M758.63,372.98v-51.64h5.05v-5.16h5.16v-5.16h5.16v-5.16h5.16v-5.16h10.33v5.16h5.27v5.16h5.16v5.16h5.05v5.16h5.27v51.64h-10.44v-22.96h-30.98v22.96h-10.19ZM768.85,339.91h31.09v-13.4h-5.16v-5.16h-5.27v-5.16h-10.33v5.16h-5.16v5.16h-5.16v13.4h-.01Z"/>
    <path class="st0" d="M827.74,372.98v-72.29h41.31v5.16h5.16v5.16h5.16v20.65h-5.16v5.16h-5.16v5.05h-10.22v5.27h5.16v5.16h5.16v5.16h5.16v5.16h5.16v10.33h-10.33v-5.16h-5.16v-5.16h-5.16v-5.16h-5.16v-5.16h-5.16v-5.16h-5.16v-5.27h-5.27v31.09h-10.33ZM838.06,331.56h25.82v-5.05h5.16v-10.33h-5.16v-5.16h-25.82v20.54Z"/>
    <path class="st0" d="M912.01,372.98v-28.12h-5.05v-5.16h-5.16v-5.16h-5.16v-5.16h-5.05v-28.67h10.22v23.51h5.16v5.16h5.16v5.16h10.33v-5.16h5.27v-5.16h5.16v-23.51h10.22v28.67h-5.16v5.16h-5.05v5.16h-5.16v5.16h-5.27v28.12h-10.46Z"/>
  </g>
</svg>